<?xml version="1.0" encoding="utf-8" ?>
<svg xmlns="http://www.w3.org/2000/svg" xmlns:xlink="http://www.w3.org/1999/xlink" width="24" height="24" viewBox="0 0 24 24">
	<defs>
		<clipPath id="clipPath8807850243">
			<path d="M0 0L24 0L24 24L0 24L0 0Z" fill-rule="nonzero" transform="matrix(1 0 0 1 0 0)"/>
		</clipPath>
	</defs>
	<g clip-path="url(#clipPath8807850243)">
		<path d="M15.3426 0C14.8667 0.115969 14.1747 0.331547 13.5877 0.637594C13.1565 0.862453 12.7778 1.1333 12.5598 1.3965C12.3419 1.65984 12.2762 1.86337 12.3528 2.12714L12.5195 2.70155L11.9225 2.66592C11.7796 2.65734 11.6908 2.66044 11.5773 2.65364C11.4639 2.6468 11.324 2.62055 11.1897 2.56598C11.0087 2.49248 10.764 2.34802 10.4357 2.14833C10.4185 2.36536 10.4085 2.62214 10.4166 2.89861C10.4344 3.504 10.5113 4.20853 10.6425 4.82845C10.7048 5.12236 10.7835 5.39723 10.8678 5.63142C11.008 5.41087 11.1614 5.20008 11.329 5.0048C12.1269 4.07583 13.2261 3.05545 14.604 2.9565C15.2801 2.90789 15.979 3.20606 16.5988 3.53822C16.7861 3.18033 17.0796 2.8837 17.3777 2.61619C17.6778 2.34675 17.9939 2.09972 18.266 1.86759C17.8182 1.55259 17.478 1.39537 17.1869 1.35877C16.8149 1.31198 16.4356 1.42673 15.8353 1.77258L15.1223 2.1833L15.3426 0ZM14.7428 3.79664C14.7297 3.79622 14.7166 3.79612 14.7035 3.79635C14.6905 3.79659 14.6774 3.79715 14.6644 3.79805C13.6886 3.86808 12.7087 4.69327 11.9691 5.55445C11.3202 6.30994 10.8741 7.48242 10.6261 8.43989C10.9479 8.49272 11.2922 8.54348 11.6369 8.5538C12.1502 8.56927 12.596 8.47912 12.8244 8.28051L13.1544 7.99392L13.4292 8.33377C13.6615 8.62102 13.9356 8.99409 14.1005 9.4342C14.1839 9.65686 14.2355 9.90895 14.2269 10.1658C14.8123 10.042 15.3487 9.83006 15.5809 9.56297L15.8273 9.2797L16.1373 9.49158C16.6063 9.81211 17.0667 10.1751 17.3858 10.6745C17.4342 10.4986 17.4765 10.3152 17.499 10.1237C17.5695 9.52664 17.4906 8.90827 17.1879 8.45995C16.7083 7.93228 16.1513 7.42612 16.0193 6.72417C15.9694 6.45816 16.0517 6.25448 16.1497 6.05433C16.2477 5.85417 16.3827 5.65744 16.5411 5.46403C16.7193 5.24634 16.9268 5.03747 17.148 4.85231C16.9598 4.72772 16.7547 4.59216 16.4975 4.44614C15.8989 4.10602 15.1572 3.80902 14.7428 3.79664ZM0.467625 4.536C0.169828 4.53427 0 4.55784 0 4.60988C0.132187 5.21255 0.374906 5.85347 0.723375 6.4605C1.94236 6.28622 3.20822 6.19308 4.50394 6.20325C5.75784 6.60919 7.06706 6.95419 8.29284 7.39097C7.09861 7.17909 5.91455 7.07025 4.75322 7.04878C4.66088 7.0471 4.56854 7.04597 4.4762 7.0454C4.38385 7.04483 4.2915 7.04482 4.19916 7.04536C2.86322 7.05286 1.56197 7.1753 0.311436 7.38145C0.535733 8.90395 1.25348 11.0874 2.6738 13.0288C4.21833 15.1398 6.56245 16.9673 10.032 17.4564C12.7595 17.8409 15.0698 17.2255 16.2416 15.9871C16.8275 15.3679 17.1507 14.602 17.143 13.6542C17.1356 12.7656 16.8206 11.7077 16.0964 10.5086C16.0433 10.4672 15.9886 10.4258 15.9314 10.3842C15.3143 10.8702 14.4471 11.0288 13.6863 11.1024L12.8242 11.1859L13.2901 10.4556C13.4295 10.2371 13.4195 10.0213 13.3104 9.73022C13.2408 9.5445 13.1222 9.35297 12.994 9.16809C12.5661 9.37519 12.0737 9.41114 11.6115 9.39717C11.0032 9.3788 10.414 9.26062 10.0336 9.19739L9.5992 9.1253L9.68995 8.69438C9.82561 8.05003 10.0525 7.25705 10.402 6.49584C8.21836 5.40647 2.1937 4.54608 0.467625 4.536ZM14.7065 4.54012C15.1214 4.54012 15.4652 4.88625 15.4652 5.30011C15.4652 5.71402 15.1214 6.06009 14.7065 6.06009C14.2916 6.06009 13.9477 5.71397 13.9477 5.30011C13.9477 4.8862 14.2916 4.54012 14.7065 4.54012ZM18.1708 5.17153L18.0908 5.21541C17.8115 5.36892 17.4484 5.68791 17.1939 5.99869C17.0667 6.15413 16.9649 6.30863 16.9075 6.42563C16.866 6.51033 16.8592 6.57347 16.8546 6.58266C16.9153 6.85453 17.3461 7.3755 17.8373 7.91963L17.8555 7.93964L17.8708 7.96181C17.9135 8.02361 17.9535 8.08715 17.9908 8.15245C18.028 8.21774 18.0623 8.28454 18.0936 8.35285C18.6313 8.37924 19.217 8.31755 19.9054 8.17814L17.9671 6.72797C17.9671 6.72797 19.722 6.76303 20.3637 6.65133C20.5838 6.61299 19.1686 5.60939 18.1708 5.17153ZM5.71763 9.33834L6.53869 9.53288C6.46237 9.85472 6.24178 10.0654 6.00642 10.2364C5.77111 10.4075 5.4967 10.5461 5.20955 10.6748C4.95783 10.7877 4.69753 10.8904 4.45041 10.9888C5.25886 11.3244 6.31313 11.5754 7.16653 11.3524L7.54786 11.2527L7.67311 11.6265C7.77164 11.9204 7.71061 12.2321 7.58077 12.4748C7.45111 12.7174 7.26131 12.9172 7.04395 13.1002C6.83733 13.2743 6.60202 13.4319 6.35789 13.5742C6.42877 13.5929 6.4868 13.6107 6.56475 13.6297C7.32197 13.8136 8.40272 14.0042 9.48084 14.0834C10.5588 14.1625 11.6411 14.122 12.3657 13.8934C12.728 13.779 12.9914 13.6215 13.1441 13.4456C13.2969 13.2697 13.3691 13.0792 13.3391 12.7593L14.1792 12.6807C14.227 13.191 14.076 13.6591 13.7812 13.9988C13.4864 14.3384 13.0774 14.5536 12.6196 14.698C11.7039 14.9869 10.554 15.0081 9.41902 14.9248C8.28403 14.8414 7.17108 14.6452 6.36558 14.4496C5.96292 14.3518 5.64155 14.2568 5.41008 14.1634C5.2943 14.1167 5.2096 14.0893 5.09053 13.9851C5.031 13.9329 4.91063 13.8353 4.92225 13.6061C4.92797 13.4916 4.98853 13.3789 5.04863 13.317C5.10863 13.2551 5.16291 13.2282 5.2065 13.2094C5.664 13.0127 6.17035 12.7327 6.50035 12.4548C6.53316 12.427 6.56501 12.3981 6.5959 12.3682C6.62679 12.3382 6.65666 12.3073 6.6855 12.2754C5.33897 12.3704 4.00833 11.799 3.22739 11.3168L2.58774 10.9219L3.25814 10.5817C3.71906 10.3477 4.34306 10.1385 4.86408 9.90478C5.1247 9.78797 5.35664 9.66539 5.51034 9.55368C5.66395 9.44212 5.71519 9.34837 5.71763 9.33834ZM4.39847 16.0056C3.93253 16.4827 3.24253 16.948 2.51503 17.3204C2.21784 16.9484 1.89844 16.5957 1.55667 16.2778L0.982078 16.8957C1.23919 17.1348 1.48598 17.4009 1.72092 17.6839C1.45256 17.7922 1.18823 17.8843 0.937406 17.9554L1.16775 18.7671C1.4797 18.6785 1.80544 18.5678 2.13361 18.4373C2.13342 19.229 2.0497 20.1126 1.82742 20.7255L2.62055 21.0134C2.79141 20.5423 2.89031 20.0077 2.94052 19.4712C3.16434 19.8668 3.36314 20.2622 3.53142 20.64L4.30219 20.2965C3.97594 19.5641 3.55031 18.775 3.03769 18.0269C3.82448 17.6222 4.56459 17.1066 5.09878 16.504C4.97898 16.4253 4.86071 16.3445 4.74395 16.2614C4.62719 16.1783 4.51203 16.093 4.39847 16.0056ZM18.5282 17.6521C17.8177 17.661 17.0206 18.0204 16.2215 18.519C16.0545 18.6232 15.891 18.7326 15.7311 18.8473C15.5711 18.9619 15.415 19.0816 15.2626 19.2062C14.9481 18.9645 14.619 18.705 14.2848 18.4455C14.2235 18.3978 14.162 18.3503 14.1005 18.303C14.0389 18.2556 13.9772 18.2084 13.9155 18.1613C13.546 18.2508 13.159 18.3171 12.7574 18.3597C13.088 18.5922 13.4285 18.8487 13.7673 19.1119C14.0572 19.337 14.3454 19.5652 14.6284 19.7847C14.396 20.0217 14.1855 20.2689 14.0077 20.5223L14.6983 21.007C14.8627 20.7727 15.0726 20.5325 15.3112 20.2984C15.5498 20.4709 15.7826 20.6304 16.0059 20.7655L16.4427 20.0436C16.4058 20.0212 16.3691 19.9984 16.3326 19.9753C16.2962 19.9522 16.2599 19.9287 16.2239 19.9049C17.1336 19.7956 18.0546 19.8885 18.692 20.0303L18.8753 19.2067C18.3794 19.0963 17.7526 19.0087 17.0745 19.0063L17.0656 19.0064C17.7038 18.6681 18.3128 18.4803 18.6224 18.4975L18.6692 17.6551C18.6458 17.6539 18.6223 17.653 18.5988 17.6525C18.5753 17.652 18.5517 17.6518 18.5282 17.6521Z" fill-rule="nonzero" transform="matrix(1 0 0 1 1.80675 1.49334)" fill="rgb(76, 175, 80)"/>
	</g>
</svg>
