<svg width="24" height="24" viewBox="0 0 24 24" fill="none" xmlns="http://www.w3.org/2000/svg">
<path d="M18.14 16.7C17.23 18.21 16.08 17.73 15 17.09C13.92 16.45 12.9 15.68 12.25 16.59C11.54 17.37 12.09 18.62 12.37 19.72C12.65 20.83 12.67 21.79 10.9 22C9.49999 21.81 9.57999 20.65 9.80999 19.42C10.04 18.19 10.4 16.89 9.49999 16.43C8.77999 15.95 8.27999 16.78 7.64999 17.6C6.99999 18.41 6.25999 19.2 5.03999 18.62C3.93999 17.71 4.35999 17.18 4.93999 16.5C5.51999 15.82 6.26999 14.91 5.83999 13.31C5.65999 12.66 4.75999 12.81 3.86999 12.79C2.99999 12.77 2.11999 12.59 2.02999 11.29C1.95999 10.5 2.54999 10.18 3.15999 9.93003C3.77999 9.68003 4.40999 9.50003 4.41999 8.87003C4.44999 8.26003 4.03999 7.83003 3.77999 7.38003C3.51999 6.93003 3.40999 6.46003 4.02999 5.76003C5.07999 4.90003 5.91999 5.63003 6.75999 6.42003C7.59999 7.21003 8.42999 8.04003 9.45999 7.39003C10.28 6.85003 9.52999 5.90003 8.94999 4.97003C8.36999 4.04003 7.95999 3.15003 9.45999 2.74003C10.76 2.38003 11.26 3.27003 11.71 4.30003C12.17 5.33003 12.57 6.50003 13.67 6.71003C15.24 7.00003 16.38 5.16003 17.47 3.70003C18.56 2.24003 19.63 1.15003 21 2.95003C22.5 4.84003 21.07 5.72003 19.4 6.50003C17.73 7.23003 15.81 7.87003 16.27 9.28003C16.54 10.1 17.42 9.65003 18.35 9.34003C19.27 9.03003 20.26 8.86003 20.74 10.27C21.25 11.76 20.04 12.1 18.68 12.24C17.32 12.38 15.8 12.32 15.7 13C15.59 13.71 16.5 14 17.29 14.42C18.08 14.85 18.75 15.42 18.14 16.7ZM20.5 19C19.55 19 19.06 18.26 19.06 17.5C19.06 16.74 19.54 16 20.5 16C21.5 16 22 16.74 22 17.5C22 18.26 21.5 19 20.5 19Z" fill="white"/>
</svg>
