<?xml version="1.0" encoding="utf-8" ?>
<svg xmlns="http://www.w3.org/2000/svg" xmlns:xlink="http://www.w3.org/1999/xlink" width="24" height="24" viewBox="0 0 24 24">
	<defs>
		<clipPath id="clipPath5752844486">
			<path d="M0 0L24 0L24 24L0 24L0 0Z" fill-rule="nonzero" transform="matrix(1 0 0 1 0 0)"/>
		</clipPath>
	</defs>
	<g clip-path="url(#clipPath5752844486)">
		<path d="M4.5 4.125Q4.5 1.56639 5.31235 -0.299398L6 0L6.29934 0.687672Q5.06912 1.22319 4.03968 2.1072Q3.02266 2.98056 2.28654 4.12038Q1.54452 5.26933 1.15267 6.58923Q0.75 7.94559 0.75 9.375Q0.75 11.2828 1.48645 13.0239Q2.19801 14.7061 3.49594 16.0041Q4.79386 17.302 6.47613 18.0136Q8.21724 18.75 10.125 18.75Q11.5544 18.75 12.9108 18.3473Q14.2307 17.9555 15.3796 17.2135Q16.5194 16.4774 17.3928 15.4603Q18.2768 14.4309 18.8123 13.2007L19.5 13.5L19.7994 14.1876Q17.9336 15 15.375 15Q13.163 15 11.1418 14.1451Q9.19008 13.3195 7.68528 11.8147Q6.18048 10.3099 5.35495 8.35821Q4.5 6.33695 4.5 4.125ZM6 4.125Q6 6.03277 6.73645 7.77387Q7.44801 9.45614 8.74594 10.7541Q10.0439 12.052 11.7261 12.7636Q13.4672 13.5 15.375 13.5Q17.6212 13.5 19.2006 12.8124Q19.3438 12.75 19.5 12.75Q19.6561 12.75 19.7993 12.8123Q19.8671 12.8418 19.9277 12.8839Q19.9884 12.9261 20.0397 12.9792Q20.091 13.0324 20.1309 13.0945Q20.1709 13.1567 20.1979 13.2254Q20.225 13.2941 20.2381 13.3668Q20.2512 13.4395 20.2499 13.5134Q20.2486 13.5873 20.2329 13.6594Q20.2172 13.7316 20.1877 13.7993Q19.562 15.2367 18.5308 16.4375Q17.5158 17.6195 16.1934 18.4735Q14.8638 19.3322 13.3377 19.7853Q11.7724 20.25 10.125 20.25Q7.91305 20.25 5.89179 19.3951Q3.94007 18.5695 2.43528 17.0647Q0.930478 15.5599 0.104946 13.6082Q-0.75 11.587 -0.75 9.375Q-0.75 7.72763 -0.285295 6.16233Q0.167768 4.63624 1.02647 3.30661Q1.88051 1.98419 3.06245 0.969216Q4.26328 -0.0619838 5.70066 -0.687672Q5.84385 -0.750006 6.00003 -0.75Q6.15621 -0.749994 6.2994 -0.687649Q6.36712 -0.658161 6.4278 -0.616027Q6.48847 -0.573892 6.53976 -0.52073Q6.59105 -0.467569 6.63098 -0.405423Q6.67091 -0.343277 6.69795 -0.274536Q6.72499 -0.205794 6.73809 -0.133098Q6.7512 -0.0604018 6.74988 0.0134548Q6.74855 0.0873114 6.73284 0.15949Q6.71714 0.231669 6.68765 0.299397Q6 1.87877 6 4.125Z" fill-rule="nonzero" transform="matrix(1 0 0 1 2.25 2.25)" fill="rgb(75, 85, 99)"/>
	</g>
</svg>
