<?xml version="1.0" encoding="utf-8" ?>
<svg xmlns="http://www.w3.org/2000/svg" xmlns:xlink="http://www.w3.org/1999/xlink" width="24" height="24" viewBox="0 0 24 24">
	<defs>
		<clipPath id="clipPath2775715502">
			<path d="M0 0L24 0L24 24L0 24L0 0Z" fill-rule="nonzero" transform="matrix(1 0 0 1 0 0)"/>
		</clipPath>
	</defs>
	<g clip-path="url(#clipPath2775715502)">
		<path d="M14.25 12.3785Q14.25 14.0535 13.7303 15.4434Q13.2095 16.8364 12.2087 17.8372Q11.2079 18.838 9.81489 19.3589Q8.42496 19.8785 6.75 19.8785Q5.07504 19.8785 3.68511 19.3589Q2.2921 18.838 1.29129 17.8372Q0.290482 16.8364 -0.230335 15.4434Q-0.75 14.0535 -0.75 12.3785Q-0.75 9.30324 1.96579 4.8792Q3.57757 2.25358 5.75292 -0.29074Q6.14617 -0.75 6.75024 -0.75Q7.3543 -0.75 7.74719 -0.291161Q9.92343 2.25501 11.5343 4.87921Q14.25 9.30333 14.25 12.3785ZM12.75 12.3785Q12.75 9.72698 10.2559 5.66392Q8.70667 3.14008 6.60781 0.68445Q6.66394 0.75 6.75024 0.75Q6.83653 0.75 6.89302 0.684026Q4.79426 3.13876 3.24414 5.66394Q0.75 9.72691 0.75 12.3785Q0.75 13.7822 1.17468 14.9181Q1.58144 16.0061 2.35195 16.7766Q3.12247 17.5471 4.21041 17.9538Q5.34628 18.3785 6.75 18.3785Q8.15372 18.3785 9.28959 17.9538Q10.3775 17.5471 11.148 16.7766Q11.9186 16.0061 12.3253 14.9181Q12.75 13.7822 12.75 12.3785Z" fill-rule="nonzero" transform="matrix(1 0 0 1 5.25 2.62148)" fill="white"/>
		<path d="M3.375 -0.75C2.96079 -0.75 2.625 -0.41421 2.625 0Q2.625 1.08731 1.85615 1.85616Q1.08731 2.625 0 2.625C-0.41421 2.625 -0.75 2.96079 -0.75 3.375C-0.75 3.78921 -0.41421 4.125 0 4.125Q1.70863 4.125 2.91682 2.91682Q4.125 1.70863 4.125 0C4.125 -0.41421 3.78921 -0.75 3.375 -0.75Z" fill-rule="evenodd" transform="matrix(1 0 0 1 12.75 15.375)" fill="white"/>
	</g>
</svg>
