<?xml version="1.0" encoding="utf-8" ?>
<svg xmlns="http://www.w3.org/2000/svg" xmlns:xlink="http://www.w3.org/1999/xlink" width="24" height="24" viewBox="0 0 24 24">
	<defs>
		<clipPath id="clipPath4081761677">
			<path d="M0 0L24 0L24 24L0 24L0 0Z" fill-rule="nonzero" transform="matrix(1 0 0 1 0 0)"/>
		</clipPath>
	</defs>
	<g clip-path="url(#clipPath4081761677)">
		<path d="M12 18C12.45 16.5047 13.3828 15.2297 14.3063 13.9594C14.55 13.6266 14.7938 13.2937 15.0281 12.9562C15.9563 11.6203 16.5 10.0031 16.5 8.25469C16.5 3.69375 12.8063 0 8.25 0C3.69375 0 0 3.69375 0 8.25C0 9.99844 0.54375 11.6203 1.47188 12.9516C1.70625 13.2891 1.95 13.6219 2.19375 13.9547C3.12188 15.225 4.05469 16.5047 4.5 17.9953L12 17.9953L12 18ZM8.25 24C10.3219 24 12 22.3219 12 20.25L12 19.5L4.5 19.5L4.5 20.25C4.5 22.3219 6.17813 24 8.25 24ZM4.5 8.25C4.5 8.6625 4.1625 9 3.75 9C3.3375 9 3 8.6625 3 8.25C3 5.34844 5.34844 3 8.25 3C8.6625 3 9 3.3375 9 3.75C9 4.1625 8.6625 4.5 8.25 4.5C6.17813 4.5 4.5 6.17813 4.5 8.25Z" fill-rule="nonzero" transform="matrix(1 0 0 1 3.75 0)" fill="rgb(255, 255, 255)"/>
	</g>
</svg>
