<?xml version="1.0" encoding="utf-8" ?>
<svg xmlns="http://www.w3.org/2000/svg" xmlns:xlink="http://www.w3.org/1999/xlink" width="32" height="32" viewBox="0 0 32 32">
	<defs>
		<clipPath id="clipPath2417290895">
			<path d="M0 0L32 0L32 32L0 32L0 0Z" fill-rule="nonzero" transform="matrix(1 0 0 1 0 0)"/>
		</clipPath>
	</defs>
	<g clip-path="url(#clipPath2417290895)">
		<path d="M13 -1C12.4477 -1 12 -0.55228 12 0L12 3C12 3.55228 12.4477 4 13 4C13.5523 4 14 3.55228 14 3L14 0C14 -0.55228 13.5523 -1 13 -1ZM3.10039 4.51461C2.70987 4.12409 2.70987 3.49091 3.10039 3.10039C3.49091 2.70987 4.12409 2.70987 4.51461 3.10039L6.63586 5.22164C7.02638 5.61216 7.02638 6.24534 6.63586 6.63586C6.24534 7.02638 5.61216 7.02638 5.22164 6.63586L3.10039 4.51461ZM22.8996 3.10039C22.5091 2.70987 21.8759 2.70987 21.4854 3.10039L19.3641 5.22164C18.9736 5.61216 18.9736 6.24534 19.3641 6.63586C19.7547 7.02638 20.3878 7.02638 20.7784 6.63586L22.8996 4.51461C23.2901 4.12409 23.2901 3.49091 22.8996 3.10039ZM-1 13C-1 13.5523 -0.55228 14 0 14L3 14C3.55228 14 4 13.5523 4 13C4 12.4477 3.55228 12 3 12L0 12C-0.55228 12 -1 12.4477 -1 13ZM22 13C22 13.5523 22.4477 14 23 14L26 14C26.5523 14 27 13.5523 27 13C27 12.4477 26.5523 12 26 12L23 12C22.4477 12 22 12.4477 22 13ZM6.63586 19.3641C6.24534 18.9736 5.61216 18.9736 5.22164 19.3641L3.10039 21.4854C2.70987 21.8759 2.70987 22.5091 3.10039 22.8996C3.49091 23.2901 4.12409 23.2901 4.51461 22.8996L6.63586 20.7784C7.02638 20.3878 7.02638 19.7547 6.63586 19.3641ZM19.3641 19.3641C18.9736 19.7547 18.9736 20.3878 19.3641 20.7784L21.4854 22.8996C21.8759 23.2901 22.5091 23.2901 22.8996 22.8996C23.2901 22.5091 23.2901 21.8759 22.8996 21.4854L20.7784 19.3641C20.3878 18.9736 19.7547 18.9736 19.3641 19.3641ZM13 22C12.4477 22 12 22.4477 12 23L12 26C12 26.5523 12.4477 27 13 27C13.5523 27 14 26.5523 14 26L14 23C14 22.4477 13.5523 22 13 22Z" fill-rule="evenodd" transform="matrix(1 0 0 1 3 3)" fill="rgb(236, 149, 42)"/>
		<circle cx="5" cy="5" r="5" stroke-width="2" transform="matrix(1 0 0 1 11 11)" stroke="rgb(236, 149, 42)" fill="transparent"/>
	</g>
</svg>
