<?xml version="1.0" encoding="utf-8" ?>
<svg xmlns="http://www.w3.org/2000/svg" xmlns:xlink="http://www.w3.org/1999/xlink" width="24" height="24" viewBox="0 0 24 24">
	<defs>
		<clipPath id="clipPath5002375715">
			<path d="M0 0L24 0L24 24L0 24L0 0Z" fill-rule="nonzero" transform="matrix(1 0 0 1 0 0)"/>
		</clipPath>
	</defs>
	<g clip-path="url(#clipPath5002375715)">
		<path d="M1.51431 17.0859L17.4921 17.0859Q17.7196 17.0859 17.8693 17.0009Q18.0191 16.9159 18.1358 16.7205Q18.2525 16.5251 18.2563 16.3529Q18.2601 16.1808 18.1522 15.9804L10.1638 1.14448Q10.0597 0.951215 9.87971 0.848317Q9.70775 0.75 9.50322 0.75Q9.29869 0.75 9.12673 0.848317Q8.94676 0.951215 8.84255 1.14464L0.854201 15.9804Q0.74631 16.1808 0.750137 16.3529Q0.753964 16.5251 0.870668 16.7205Q0.987371 16.9159 1.1371 17.0009Q1.28683 17.0859 1.51445 17.0859L1.51431 17.0859ZM1.51418 18.5859Q0.890639 18.5858 0.396594 18.3054Q-0.0974537 18.0249 -0.417159 17.4896Q-0.736865 16.9542 -0.749492 16.3863Q-0.76212 15.8183 -0.466512 15.2693L7.52201 0.433173Q7.82974 -0.137992 8.3822 -0.453864Q8.90014 -0.75 9.50322 -0.75Q10.1063 -0.75 10.6242 -0.453864Q11.1767 -0.137992 11.4845 0.433336L19.473 15.2693Q19.7686 15.8183 19.7559 16.3863Q19.7433 16.9542 19.4236 17.4896Q19.1039 18.0249 18.6098 18.3054Q18.1158 18.5858 17.4921 18.5859L1.51431 18.5859L1.51418 18.5859Z" fill-rule="nonzero" transform="matrix(1 0 0 1 2.49678 3.08203)" fill="rgb(239, 68, 68)"/>
		<path d="M0.749381 0.243672L1.01844 5.96242L0.269272 5.99767L-0.479901 5.96247L-0.211307 0.246064Q-0.220749 0.454062 -0.0769959 0.603029Q0.0667574 0.751996 0.273765 0.749979Q0.476794 0.747994 0.616971 0.601151Q0.757143 0.454316 0.749706 0.251445L0.749381 0.243672ZM-0.749287 0.306396Q-0.765045 -0.123462 -0.468026 -0.4346Q-0.171006 -0.745742 0.259156 -0.749949Q0.697785 -0.754221 1.00239 -0.438574Q1.30698 -0.122927 1.28704 0.316466L1.01845 6.03287Q1.01519 6.10222 0.999255 6.16979Q0.983323 6.23736 0.955259 6.30086Q0.927194 6.36436 0.887951 6.42163Q0.848707 6.47889 0.799619 6.52798Q0.750531 6.57708 0.693265 6.61632Q0.636 6.65557 0.572503 6.68364Q0.509007 6.71171 0.441437 6.72764Q0.373867 6.74358 0.30452 6.74684Q0.230733 6.75031 0.157687 6.73932Q0.0846405 6.72833 0.0151417 6.7033Q-0.0543571 6.67827 -0.117637 6.64017Q-0.180918 6.60206 -0.235548 6.55234Q-0.290178 6.50262 -0.334058 6.4432Q-0.377938 6.38377 -0.409383 6.31693Q-0.440827 6.25009 -0.458627 6.1784Q-0.476427 6.10671 -0.479899 6.03292L-0.748962 0.314168L-0.749287 0.306396Z" fill-rule="nonzero" transform="matrix(1 0 0 1 11.7307 8.87999)" fill="rgb(239, 68, 68)"/>
		<path d="M0.9375 1.875C0.678616 1.875 0.457645 1.78347 0.274587 1.60041C0.0915284 1.41735 -4.76837e-07 1.19638 0 0.9375C-4.76837e-07 0.678617 0.0915284 0.457645 0.274587 0.274587C0.457645 0.0915289 0.678616 0 0.9375 0C1.19638 0 1.41735 0.0915284 1.60041 0.274585C1.78347 0.457643 1.875 0.678614 1.875 0.937499C1.875 1.19638 1.78347 1.41735 1.60041 1.60041C1.41735 1.78347 1.19638 1.875 0.9375 1.875Z" fill-rule="nonzero" transform="matrix(1 0 0 1 11.0625 16.7461)" fill="rgb(239, 68, 68)"/>
	</g>
</svg>
