<svg width="24" height="24" viewBox="0 0 24 24" fill="none" xmlns="http://www.w3.org/2000/svg">
<path d="M7.5 21.5H15.5M12.5 5.5H10.5C9.557 5.5 9.086 5.5 8.793 5.793C8.5 6.086 8.5 6.557 8.5 7.5V9.5C8.5 10.443 8.5 10.914 8.793 11.207C9.086 11.5 9.557 11.5 10.5 11.5H12.5C13.443 11.5 13.914 11.5 14.207 11.207C14.5 10.914 14.5 10.443 14.5 9.5V7.5C14.5 6.557 14.5 6.086 14.207 5.793C13.914 5.5 13.443 5.5 12.5 5.5ZM13 11.5H10V21.5H13V11.5ZM14.5 7H18.5C19.2956 7 20.0587 7.31607 20.6213 7.87868C21.1839 8.44129 21.5 9.20435 21.5 10V12.5H18.5V10H14.5V7Z" stroke="white" stroke-width="1.5" stroke-linecap="round" stroke-linejoin="round"/>
<path d="M14.5 2.5H9.1C7.838 2.5 7.207 2.5 6.71 2.823C6.213 3.146 5.957 3.723 5.444 4.875L2.5 11.5" stroke="white" stroke-width="1.5" stroke-linecap="round" stroke-linejoin="round"/>
<path d="M20 15.5L20.558 15C20.4877 14.9217 20.4016 14.859 20.3055 14.8162C20.2094 14.7733 20.1053 14.7511 20 14.7511C19.8947 14.7511 19.7906 14.7733 19.6945 14.8162C19.5984 14.859 19.5123 14.9217 19.442 15L20 15.5ZM20.75 18C20.75 18.1989 20.671 18.3897 20.5303 18.5303C20.3897 18.671 20.1989 18.75 20 18.75V20.25C20.5967 20.25 21.169 20.0129 21.591 19.591C22.0129 19.169 22.25 18.5967 22.25 18H20.75ZM20 18.75C19.8011 18.75 19.6103 18.671 19.4697 18.5303C19.329 18.3897 19.25 18.1989 19.25 18H17.75C17.75 18.5967 17.9871 19.169 18.409 19.591C18.831 20.0129 19.4033 20.25 20 20.25V18.75ZM19.25 18C19.25 18.003 19.25 17.969 19.277 17.889C19.3017 17.8117 19.343 17.7163 19.401 17.603C19.518 17.376 19.682 17.123 19.859 16.877C20.0743 16.5793 20.3033 16.2917 20.545 16.015L20.555 16.003L20.558 16.001L20 15.5L19.442 15H19.44L19.435 15.005L19.421 15.022C19.3422 15.1121 19.2646 15.2031 19.188 15.295C19.04 15.473 18.842 15.722 18.641 16.001C18.443 16.276 18.231 16.597 18.068 16.916C17.916 17.21 17.75 17.605 17.75 18H19.25ZM20 15.5L19.442 16L19.444 16.003L19.454 16.015C19.5232 16.093 19.5909 16.1723 19.657 16.253C19.79 16.413 19.967 16.634 20.141 16.877C20.318 17.123 20.481 17.376 20.599 17.603C20.657 17.7163 20.6983 17.8117 20.723 17.889C20.749 17.969 20.75 18.003 20.75 18H22.25C22.25 17.605 22.084 17.212 21.933 16.917C21.7639 16.5983 21.5721 16.2921 21.359 16.001C21.1148 15.6627 20.8545 15.3363 20.579 15.023L20.564 15.006L20.56 15L20 15.5Z" fill="white"/>
<path d="M11.5 2.5V5.5" stroke="white" stroke-width="1.5" stroke-linecap="round" stroke-linejoin="round"/>
</svg>
