<?xml version="1.0" encoding="utf-8" ?>
<svg xmlns="http://www.w3.org/2000/svg" xmlns:xlink="http://www.w3.org/1999/xlink" width="32" height="32" viewBox="0 0 32 32">
	<defs>
		<clipPath id="clipPath5078436746">
			<path d="M0 0L32 0L32 32L0 32L0 0Z" fill-rule="nonzero" transform="matrix(1 0 0 1 0 0)"/>
		</clipPath>
	</defs>
	<g clip-path="url(#clipPath5078436746)">
		<rect width="26" height="26" rx="6" ry="6" stroke-width="2" stroke-linejoin="round" transform="matrix(1 0 0 1 3 3)" stroke="rgb(141, 110, 99)" fill="transparent"/>
		<path d="M16.6522 3.95178Q15.3136 2.73255 13.6894 1.99448Q11.5008 1 9.0168 1Q6.53279 1 4.34425 1.99448Q2.71998 2.73255 1.38145 3.95178Q1.0329 4.26929 1.00295 4.73985Q0.972998 5.21042 1.27851 5.56957L3.36133 8.02057Q3.51145 8.19644 3.74214 8.23221Q3.97284 8.26799 4.17105 8.14467Q5.18505 7.51855 6.23613 7.14488Q7.65277 6.64125 9.01806 6.64125Q10.3833 6.64125 11.8 7.14488Q12.8511 7.51856 13.8622 8.14288Q14.0633 8.26799 14.294 8.23222Q14.5247 8.19644 14.6762 8.01889L16.7544 5.5704Q17.0606 5.21042 17.0307 4.73986Q17.0007 4.26929 16.6521 3.95176L16.6522 3.95178ZM17.999 2.47324Q18.9453 3.33529 19.0266 4.61282Q19.1079 5.89036 18.2792 6.8646L16.1974 9.31736Q15.5642 10.0592 14.6004 10.2086Q13.6367 10.358 12.8114 9.84462Q11.981 9.33187 11.13 9.02934Q10.0384 8.64125 9.01805 8.64125Q7.99771 8.64125 6.90607 9.02934Q6.0551 9.33187 5.22756 9.84284Q4.39946 10.358 3.43569 10.2086Q2.47191 10.0592 1.83728 9.31568L-0.244898 6.86543Q-1.07432 5.89036 -0.993015 4.61282Q-0.911707 3.33529 0.0346591 2.47322Q1.60595 1.04197 3.51686 0.173647Q6.0997 -1 9.0168 -1Q11.9339 -1 14.5167 0.173647Q16.4277 1.04197 17.9989 2.47322L17.999 2.47324Z" fill-rule="nonzero" transform="matrix(1 0 0 1 6.9832 6.26)" fill="rgb(141, 110, 99)"/>
	</g>
</svg>
